<svg width="802" height="223" viewBox="0 0 802 223" fill="none" xmlns="http://www.w3.org/2000/svg">
<path d="M110.5 140H111V139.5V70.3933L209 46.6357V70V70.5H209.5H269C275.904 70.5 281.5 76.0964 281.5 83V210C281.5 216.904 275.904 222.5 269 222.5H0.5V140H110.5Z" fill="white" stroke="#979797"/>
<path d="M0 79.5V223H80.5C141 218 185 168.5 144.5 138C104 107.5 120.247 70.9692 176.5 61L193.39 59.1234C193.982 59.0576 194.5 59.5213 194.5 60.1173V132C194.5 132.824 195.441 133.294 196.1 132.8L277.224 71.9568C277.814 71.5142 277.739 70.6068 277.083 70.2683L153.365 6.38502C145.607 2.37877 136.39 2.37196 128.625 6.36674L3 71L76 126L78 134L3.2 77.9C1.88153 76.9111 0 77.8519 0 79.5Z" fill="#049EA5"/>
<path fill-rule="evenodd" clip-rule="evenodd" d="M147.383 140.324C122.438 153.391 105.651 156.492 74.0001 152.5C68.7076 193.06 56.4417 210.765 2.25293 223H80.5001C139.486 218.125 182.787 170.949 147.383 140.324Z" fill="#007377"/>
<path d="M366.856 172.92C360.072 172.92 353.48 171.917 347.08 169.912C340.68 167.907 335.261 165.005 330.824 161.208L340.808 145.336C342.685 147.341 345.075 149.069 347.976 150.52C350.877 151.971 353.971 153.101 357.256 153.912C360.584 154.68 363.805 155.064 366.92 155.064C371.315 155.064 374.877 154.339 377.608 152.888C380.381 151.395 381.768 149.24 381.768 146.424C381.768 144.12 380.765 142.179 378.76 140.6C376.797 139.021 373.107 137.507 367.688 136.056L360.008 133.88C350.792 131.32 344.157 127.821 340.104 123.384C336.051 118.947 334.024 113.613 334.024 107.384C334.024 103.373 334.877 99.6827 336.584 96.312C338.291 92.8987 340.68 89.9547 343.752 87.48C346.824 84.9627 350.429 83.0213 354.568 81.656C358.749 80.248 363.293 79.544 368.2 79.544C374.984 79.544 381.277 80.5467 387.08 82.552C392.925 84.5147 397.619 87.2027 401.16 90.616L390.792 105.976C389.171 104.269 387.165 102.776 384.776 101.496C382.387 100.216 379.784 99.2133 376.968 98.488C374.152 97.7627 371.315 97.4 368.456 97.4C365.64 97.4 363.187 97.7627 361.096 98.488C359.005 99.2133 357.363 100.259 356.168 101.624C355.016 102.947 354.44 104.525 354.44 106.36C354.44 107.853 354.867 109.112 355.72 110.136C356.616 111.117 358.088 112.056 360.136 112.952C362.227 113.848 365.043 114.829 368.584 115.896L376.392 118.2C385.565 120.888 392.2 124.259 396.296 128.312C400.392 132.365 402.44 137.635 402.44 144.12C402.44 149.795 400.989 154.808 398.088 159.16C395.187 163.469 391.069 166.84 385.736 169.272C380.445 171.704 374.152 172.92 366.856 172.92ZM441.054 172.92C435.123 172.92 430.217 171.768 426.334 169.464C422.451 167.117 419.55 163.896 417.63 159.8C415.753 155.661 414.814 150.861 414.814 145.4V105.72H435.806V142.264C435.806 145.848 436.745 148.685 438.622 150.776C440.542 152.867 443.315 153.912 446.942 153.912C449.289 153.912 451.337 153.4 453.086 152.376C454.878 151.309 456.243 149.859 457.182 148.024C458.163 146.189 458.654 144.056 458.654 141.624V105.72H479.646V171H461.534V164.088C459.443 166.435 456.798 168.504 453.598 170.296C450.398 172.045 446.217 172.92 441.054 172.92ZM497.079 171V105.72H518.071V113.336C520.034 109.965 522.636 107.512 525.879 105.976C529.122 104.44 532.642 103.672 536.439 103.672C537.89 103.672 539.191 103.757 540.343 103.928C541.495 104.099 542.626 104.291 543.735 104.504L541.239 126.072C539.788 125.56 538.252 125.155 536.631 124.856C535.01 124.515 533.388 124.344 531.767 124.344C527.799 124.344 524.514 125.496 521.911 127.8C519.351 130.061 518.071 133.389 518.071 137.784V171H497.079ZM572.197 172.92C567.845 172.92 563.941 172.088 560.485 170.424C557.029 168.717 554.298 166.307 552.293 163.192C550.288 160.035 549.285 156.259 549.285 151.864C549.285 148.109 550.202 144.781 552.037 141.88C553.914 138.979 556.73 136.589 560.485 134.712C564.24 132.835 568.954 131.576 574.629 130.936C580.346 130.253 587.024 130.253 594.661 130.936L594.853 143.992C590.8 143.267 587.13 142.904 583.845 142.904C580.602 142.861 577.829 143.139 575.525 143.736C573.264 144.291 571.514 145.165 570.277 146.36C569.04 147.555 568.421 149.027 568.421 150.776C568.421 153.037 569.274 154.765 570.981 155.96C572.73 157.155 575.056 157.752 577.957 157.752C580.474 157.752 582.736 157.304 584.741 156.408C586.789 155.512 588.41 154.211 589.605 152.504C590.842 150.755 591.461 148.621 591.461 146.104V131.192C591.461 128.845 590.97 126.776 589.989 124.984C589.008 123.192 587.45 121.805 585.317 120.824C583.226 119.8 580.432 119.288 576.933 119.288C573.562 119.288 570.213 119.8 566.885 120.824C563.557 121.805 560.57 123.299 557.925 125.304L552.549 110.904C556.773 108.259 561.296 106.317 566.117 105.08C570.938 103.8 575.674 103.16 580.325 103.16C586.469 103.16 591.866 104.141 596.517 106.104C601.21 108.067 604.88 111.096 607.525 115.192C610.17 119.288 611.493 124.536 611.493 130.936V171H593.381V164.088C591.29 166.904 588.41 169.08 584.741 170.616C581.072 172.152 576.89 172.92 572.197 172.92ZM655.565 172.92C648.312 172.92 642.616 170.893 638.477 166.84C634.338 162.744 632.269 156.643 632.269 148.536V87.032H653.261V105.72H668.557V122.36H653.261V144.888C653.261 148.387 654.029 150.84 655.565 152.248C657.101 153.656 659.085 154.36 661.517 154.36C662.84 154.36 664.141 154.211 665.421 153.912C666.744 153.571 667.96 153.08 669.069 152.44L671.757 168.888C669.752 169.997 667.341 170.936 664.525 171.704C661.709 172.515 658.722 172.92 655.565 172.92ZM619.597 122.36V105.72H634.189V122.36H619.597ZM686.185 171V81.4H707.433V171H686.185ZM726.704 171V105.72H747.696V112.632C750.128 109.56 753.008 107.32 756.336 105.912C759.664 104.504 763.163 103.8 766.832 103.8C772.976 103.8 778.032 105.016 782 107.448C785.968 109.837 788.891 112.952 790.768 116.792C792.688 120.589 793.648 124.621 793.648 128.888V171H772.656V135.48C772.656 131.555 771.611 128.461 769.52 126.2C767.472 123.939 764.443 122.808 760.432 122.808C757.872 122.808 755.632 123.363 753.712 124.472C751.835 125.581 750.363 127.16 749.296 129.208C748.229 131.213 747.696 133.517 747.696 136.12V171H726.704Z" fill="black"/>
</svg>
