<svg width="293" height="232" viewBox="0 0 293 232" fill="none" xmlns="http://www.w3.org/2000/svg">
<path d="M119.5 142.5V73L218.5 49V73H278C285.18 73 291 78.8203 291 86V213C291 220.18 285.18 226 278 226H9V142.5H119.5Z" fill="#172F30"/>
<path d="M6 226V229H9H89.5H89.6238L89.7471 228.99C120.651 226.436 147.603 212.515 161.714 194.941C168.787 186.133 172.778 176.207 172.087 166.238C171.39 156.192 165.975 146.639 155.305 138.604C135.564 123.737 130.73 108.324 135.979 95.9743C141.404 83.2085 158.208 71.9026 185.928 66.9709L200.5 65.3518V135C200.5 138.296 204.263 140.178 206.9 138.2L288.024 77.3568L286.224 74.9568L288.024 77.3568C290.385 75.5863 290.081 71.9566 287.459 70.6027L163.742 6.71941C155.121 2.26802 144.88 2.26045 136.253 6.6991L10.6275 71.3324L6.37665 73.5194L10.1948 76.3961L11.7134 77.5403C8.88092 77.1341 6 79.2755 6 82.5V226Z" fill="black" stroke="white" stroke-width="6"/>
<path d="M9 82.5V226H89.5C150 221 194 171.5 153.5 141C113 110.5 129.247 73.9692 185.5 64L202.39 62.1234C202.982 62.0576 203.5 62.5213 203.5 63.1173V135C203.5 135.824 204.441 136.294 205.1 135.8L286.224 74.9568C286.814 74.5142 286.739 73.6068 286.083 73.2683L162.365 9.38502C154.607 5.37877 145.39 5.37196 137.625 9.36674L12 74L85 129L87 137L12.2 80.9C10.8815 79.9111 9 80.8519 9 82.5Z" fill="#13879B"/>
<path fill-rule="evenodd" clip-rule="evenodd" d="M156.383 143.324C131.438 156.391 114.651 159.492 83.0001 155.5C77.7076 196.06 65.4417 213.765 11.2529 226H89.5001C148.486 221.125 191.787 173.949 156.383 143.324Z" fill="#00597C"/>
</svg>
